<mxfile host="app.diagrams.net" agent="Mozilla/5.0 (Windows NT 10.0; Win64; x64) AppleWebKit/537.36 (KHTML, like Gecko) Chrome/135.0.0.0 Safari/537.36" version="27.0.6">
  <diagram name="Page-1" id="ZVxrbwF-y4XfsVO82NDN">
    <mxGraphModel dx="2276" dy="1877" grid="1" gridSize="10" guides="1" tooltips="1" connect="1" arrows="1" fold="1" page="1" pageScale="1" pageWidth="850" pageHeight="1100" math="0" shadow="0">
      <root>
        <mxCell id="0" />
        <mxCell id="1" parent="0" />
        <mxCell id="q2-yrbOwbaP1IOzWYqq9-1" value="Payment" style="rounded=0;whiteSpace=wrap;html=1;" vertex="1" parent="1">
          <mxGeometry x="120" y="110" width="80" height="30" as="geometry" />
        </mxCell>
        <mxCell id="q2-yrbOwbaP1IOzWYqq9-2" value="Library" style="rounded=0;whiteSpace=wrap;html=1;" vertex="1" parent="1">
          <mxGeometry x="70" y="335" width="80" height="30" as="geometry" />
        </mxCell>
        <mxCell id="q2-yrbOwbaP1IOzWYqq9-3" value="Staff" style="rounded=0;whiteSpace=wrap;html=1;" vertex="1" parent="1">
          <mxGeometry x="155" y="540" width="80" height="30" as="geometry" />
        </mxCell>
        <mxCell id="q2-yrbOwbaP1IOzWYqq9-4" value="Member" style="rounded=0;whiteSpace=wrap;html=1;" vertex="1" parent="1">
          <mxGeometry x="715" y="170" width="90" height="30" as="geometry" />
        </mxCell>
        <mxCell id="q2-yrbOwbaP1IOzWYqq9-5" value="Book" style="rounded=0;whiteSpace=wrap;html=1;" vertex="1" parent="1">
          <mxGeometry x="410" y="425" width="80" height="30" as="geometry" />
        </mxCell>
        <mxCell id="q2-yrbOwbaP1IOzWYqq9-6" value="Review" style="rounded=0;whiteSpace=wrap;html=1;" vertex="1" parent="1">
          <mxGeometry x="720" y="420" width="80" height="40" as="geometry" />
        </mxCell>
        <mxCell id="q2-yrbOwbaP1IOzWYqq9-7" value="Loan" style="rounded=0;whiteSpace=wrap;html=1;" vertex="1" parent="1">
          <mxGeometry x="410" y="230" width="80" height="30" as="geometry" />
        </mxCell>
        <mxCell id="q2-yrbOwbaP1IOzWYqq9-8" value="Name" style="ellipse;whiteSpace=wrap;html=1;" vertex="1" parent="1">
          <mxGeometry x="25" y="260" width="60" height="30" as="geometry" />
        </mxCell>
        <mxCell id="q2-yrbOwbaP1IOzWYqq9-9" value="Location" style="ellipse;whiteSpace=wrap;html=1;" vertex="1" parent="1">
          <mxGeometry x="-80" y="275" width="80" height="50" as="geometry" />
        </mxCell>
        <mxCell id="q2-yrbOwbaP1IOzWYqq9-10" value="ContactNumber" style="ellipse;whiteSpace=wrap;html=1;" vertex="1" parent="1">
          <mxGeometry x="-60" y="385" width="100" height="40" as="geometry" />
        </mxCell>
        <mxCell id="q2-yrbOwbaP1IOzWYqq9-11" value="EstablishedYear" style="ellipse;whiteSpace=wrap;html=1;" vertex="1" parent="1">
          <mxGeometry x="45" y="400" width="110" height="40" as="geometry" />
        </mxCell>
        <mxCell id="q2-yrbOwbaP1IOzWYqq9-12" value="&lt;u&gt;LibraryID&lt;/u&gt;" style="ellipse;whiteSpace=wrap;html=1;" vertex="1" parent="1">
          <mxGeometry x="-100" y="335" width="80" height="40" as="geometry" />
        </mxCell>
        <mxCell id="q2-yrbOwbaP1IOzWYqq9-13" value="" style="endArrow=none;html=1;rounded=0;exitX=0.5;exitY=1;exitDx=0;exitDy=0;entryX=0.25;entryY=0;entryDx=0;entryDy=0;" edge="1" parent="1" source="q2-yrbOwbaP1IOzWYqq9-8" target="q2-yrbOwbaP1IOzWYqq9-2">
          <mxGeometry width="50" height="50" relative="1" as="geometry">
            <mxPoint x="235" y="280" as="sourcePoint" />
            <mxPoint x="285" y="230" as="targetPoint" />
          </mxGeometry>
        </mxCell>
        <mxCell id="q2-yrbOwbaP1IOzWYqq9-14" value="" style="endArrow=none;html=1;rounded=0;entryX=1;entryY=1;entryDx=0;entryDy=0;exitX=0;exitY=0;exitDx=0;exitDy=0;" edge="1" parent="1" source="q2-yrbOwbaP1IOzWYqq9-2" target="q2-yrbOwbaP1IOzWYqq9-9">
          <mxGeometry width="50" height="50" relative="1" as="geometry">
            <mxPoint x="85" y="330" as="sourcePoint" />
            <mxPoint x="123.2842712474619" y="252.67766952966372" as="targetPoint" />
          </mxGeometry>
        </mxCell>
        <mxCell id="q2-yrbOwbaP1IOzWYqq9-15" value="" style="endArrow=none;html=1;rounded=0;entryX=0;entryY=0.5;entryDx=0;entryDy=0;exitX=1;exitY=0.5;exitDx=0;exitDy=0;" edge="1" parent="1" source="q2-yrbOwbaP1IOzWYqq9-12" target="q2-yrbOwbaP1IOzWYqq9-2">
          <mxGeometry width="50" height="50" relative="1" as="geometry">
            <mxPoint x="85" y="305" as="sourcePoint" />
            <mxPoint x="155" y="310" as="targetPoint" />
          </mxGeometry>
        </mxCell>
        <mxCell id="q2-yrbOwbaP1IOzWYqq9-16" value="" style="endArrow=none;html=1;rounded=0;entryX=0;entryY=1;entryDx=0;entryDy=0;exitX=1;exitY=0;exitDx=0;exitDy=0;" edge="1" parent="1" source="q2-yrbOwbaP1IOzWYqq9-10" target="q2-yrbOwbaP1IOzWYqq9-2">
          <mxGeometry width="50" height="50" relative="1" as="geometry">
            <mxPoint x="110.35533905932743" y="355.85786437626894" as="sourcePoint" />
            <mxPoint x="125" y="430" as="targetPoint" />
          </mxGeometry>
        </mxCell>
        <mxCell id="q2-yrbOwbaP1IOzWYqq9-17" value="" style="endArrow=none;html=1;rounded=0;entryX=0.25;entryY=1;entryDx=0;entryDy=0;exitX=0.5;exitY=0;exitDx=0;exitDy=0;" edge="1" parent="1" source="q2-yrbOwbaP1IOzWYqq9-11" target="q2-yrbOwbaP1IOzWYqq9-2">
          <mxGeometry width="50" height="50" relative="1" as="geometry">
            <mxPoint x="185" y="360" as="sourcePoint" />
            <mxPoint x="215" y="330" as="targetPoint" />
          </mxGeometry>
        </mxCell>
        <mxCell id="q2-yrbOwbaP1IOzWYqq9-18" value="&lt;u&gt;BookID&lt;/u&gt;" style="ellipse;whiteSpace=wrap;html=1;" vertex="1" parent="1">
          <mxGeometry x="430" y="560" width="80" height="30" as="geometry" />
        </mxCell>
        <mxCell id="q2-yrbOwbaP1IOzWYqq9-19" value="ISBN" style="ellipse;whiteSpace=wrap;html=1;" vertex="1" parent="1">
          <mxGeometry x="355" y="540" width="70" height="40" as="geometry" />
        </mxCell>
        <mxCell id="q2-yrbOwbaP1IOzWYqq9-20" value="Title" style="ellipse;whiteSpace=wrap;html=1;" vertex="1" parent="1">
          <mxGeometry x="480" y="520" width="70" height="40" as="geometry" />
        </mxCell>
        <mxCell id="q2-yrbOwbaP1IOzWYqq9-21" value="Genre" style="ellipse;whiteSpace=wrap;html=1;" vertex="1" parent="1">
          <mxGeometry x="285" y="440" width="70" height="30" as="geometry" />
        </mxCell>
        <mxCell id="q2-yrbOwbaP1IOzWYqq9-22" value="Availability" style="ellipse;whiteSpace=wrap;html=1;" vertex="1" parent="1">
          <mxGeometry x="540" y="480" width="80" height="50" as="geometry" />
        </mxCell>
        <mxCell id="q2-yrbOwbaP1IOzWYqq9-23" value="ShelfLocation" style="ellipse;whiteSpace=wrap;html=1;" vertex="1" parent="1">
          <mxGeometry x="290" y="485" width="100" height="50" as="geometry" />
        </mxCell>
        <mxCell id="q2-yrbOwbaP1IOzWYqq9-24" value="" style="endArrow=none;html=1;rounded=0;entryX=0.5;entryY=1;entryDx=0;entryDy=0;exitX=0.5;exitY=0;exitDx=0;exitDy=0;" edge="1" parent="1" source="q2-yrbOwbaP1IOzWYqq9-18" target="q2-yrbOwbaP1IOzWYqq9-5">
          <mxGeometry width="50" height="50" relative="1" as="geometry">
            <mxPoint x="430" y="460" as="sourcePoint" />
            <mxPoint x="480" y="410" as="targetPoint" />
          </mxGeometry>
        </mxCell>
        <mxCell id="q2-yrbOwbaP1IOzWYqq9-25" value="" style="endArrow=none;html=1;rounded=0;entryX=0.75;entryY=1;entryDx=0;entryDy=0;exitX=0;exitY=0;exitDx=0;exitDy=0;" edge="1" parent="1" source="q2-yrbOwbaP1IOzWYqq9-20" target="q2-yrbOwbaP1IOzWYqq9-5">
          <mxGeometry width="50" height="50" relative="1" as="geometry">
            <mxPoint x="460" y="470" as="sourcePoint" />
            <mxPoint x="510" y="420" as="targetPoint" />
          </mxGeometry>
        </mxCell>
        <mxCell id="q2-yrbOwbaP1IOzWYqq9-26" value="" style="endArrow=none;html=1;rounded=0;exitX=1;exitY=1;exitDx=0;exitDy=0;entryX=0;entryY=0;entryDx=0;entryDy=0;" edge="1" parent="1" source="q2-yrbOwbaP1IOzWYqq9-5" target="q2-yrbOwbaP1IOzWYqq9-22">
          <mxGeometry width="50" height="50" relative="1" as="geometry">
            <mxPoint x="530" y="400" as="sourcePoint" />
            <mxPoint x="580" y="350" as="targetPoint" />
          </mxGeometry>
        </mxCell>
        <mxCell id="q2-yrbOwbaP1IOzWYqq9-27" value="" style="endArrow=none;html=1;rounded=0;exitX=0.729;exitY=0.1;exitDx=0;exitDy=0;exitPerimeter=0;entryX=0.25;entryY=1;entryDx=0;entryDy=0;" edge="1" parent="1" source="q2-yrbOwbaP1IOzWYqq9-19" target="q2-yrbOwbaP1IOzWYqq9-5">
          <mxGeometry width="50" height="50" relative="1" as="geometry">
            <mxPoint x="400" y="480" as="sourcePoint" />
            <mxPoint x="450" y="430" as="targetPoint" />
          </mxGeometry>
        </mxCell>
        <mxCell id="q2-yrbOwbaP1IOzWYqq9-28" value="" style="endArrow=none;html=1;rounded=0;entryX=1;entryY=0;entryDx=0;entryDy=0;exitX=0.175;exitY=1;exitDx=0;exitDy=0;exitPerimeter=0;" edge="1" parent="1" source="q2-yrbOwbaP1IOzWYqq9-5" target="q2-yrbOwbaP1IOzWYqq9-23">
          <mxGeometry width="50" height="50" relative="1" as="geometry">
            <mxPoint x="160" y="510" as="sourcePoint" />
            <mxPoint x="210" y="460" as="targetPoint" />
          </mxGeometry>
        </mxCell>
        <mxCell id="q2-yrbOwbaP1IOzWYqq9-29" value="" style="endArrow=none;html=1;rounded=0;exitX=1;exitY=0;exitDx=0;exitDy=0;entryX=0;entryY=1;entryDx=0;entryDy=0;" edge="1" parent="1" source="q2-yrbOwbaP1IOzWYqq9-21" target="q2-yrbOwbaP1IOzWYqq9-5">
          <mxGeometry width="50" height="50" relative="1" as="geometry">
            <mxPoint x="300" y="380" as="sourcePoint" />
            <mxPoint x="350" y="330" as="targetPoint" />
          </mxGeometry>
        </mxCell>
        <mxCell id="q2-yrbOwbaP1IOzWYqq9-30" value="&lt;u&gt;MemberID&lt;/u&gt;" style="ellipse;whiteSpace=wrap;html=1;" vertex="1" parent="1">
          <mxGeometry x="855" y="100" width="90" height="40" as="geometry" />
        </mxCell>
        <mxCell id="q2-yrbOwbaP1IOzWYqq9-31" value="" style="endArrow=none;html=1;rounded=0;entryX=0;entryY=1;entryDx=0;entryDy=0;exitX=1;exitY=0;exitDx=0;exitDy=0;" edge="1" parent="1" source="q2-yrbOwbaP1IOzWYqq9-4" target="q2-yrbOwbaP1IOzWYqq9-30">
          <mxGeometry width="50" height="50" relative="1" as="geometry">
            <mxPoint x="880" y="260" as="sourcePoint" />
            <mxPoint x="930" y="210" as="targetPoint" />
          </mxGeometry>
        </mxCell>
        <mxCell id="q2-yrbOwbaP1IOzWYqq9-32" value="FullName" style="ellipse;whiteSpace=wrap;html=1;" vertex="1" parent="1">
          <mxGeometry x="855" y="150" width="80" height="40" as="geometry" />
        </mxCell>
        <mxCell id="q2-yrbOwbaP1IOzWYqq9-33" value="" style="endArrow=none;html=1;rounded=0;entryX=0;entryY=0.5;entryDx=0;entryDy=0;exitX=1;exitY=0.5;exitDx=0;exitDy=0;" edge="1" parent="1" source="q2-yrbOwbaP1IOzWYqq9-4" target="q2-yrbOwbaP1IOzWYqq9-32">
          <mxGeometry width="50" height="50" relative="1" as="geometry">
            <mxPoint x="820" y="300" as="sourcePoint" />
            <mxPoint x="870" y="250" as="targetPoint" />
          </mxGeometry>
        </mxCell>
        <mxCell id="q2-yrbOwbaP1IOzWYqq9-34" value="Email" style="ellipse;whiteSpace=wrap;html=1;" vertex="1" parent="1">
          <mxGeometry x="795" y="90" width="60" height="40" as="geometry" />
        </mxCell>
        <mxCell id="q2-yrbOwbaP1IOzWYqq9-35" value="PhoneNumber" style="ellipse;whiteSpace=wrap;html=1;" vertex="1" parent="1">
          <mxGeometry x="700" y="100" width="90" height="40" as="geometry" />
        </mxCell>
        <mxCell id="q2-yrbOwbaP1IOzWYqq9-36" value="MembershipStartDate" style="ellipse;whiteSpace=wrap;html=1;" vertex="1" parent="1">
          <mxGeometry x="805" y="200" width="160" height="40" as="geometry" />
        </mxCell>
        <mxCell id="q2-yrbOwbaP1IOzWYqq9-37" value="" style="endArrow=none;html=1;rounded=0;entryX=0.5;entryY=1;entryDx=0;entryDy=0;exitX=0.75;exitY=0;exitDx=0;exitDy=0;" edge="1" parent="1" source="q2-yrbOwbaP1IOzWYqq9-4" target="q2-yrbOwbaP1IOzWYqq9-34">
          <mxGeometry width="50" height="50" relative="1" as="geometry">
            <mxPoint x="730" y="180" as="sourcePoint" />
            <mxPoint x="780" y="130" as="targetPoint" />
          </mxGeometry>
        </mxCell>
        <mxCell id="q2-yrbOwbaP1IOzWYqq9-38" value="" style="endArrow=none;html=1;rounded=0;entryX=1;entryY=1;entryDx=0;entryDy=0;exitX=0.5;exitY=0;exitDx=0;exitDy=0;" edge="1" parent="1" source="q2-yrbOwbaP1IOzWYqq9-4" target="q2-yrbOwbaP1IOzWYqq9-35">
          <mxGeometry width="50" height="50" relative="1" as="geometry">
            <mxPoint x="680" y="230" as="sourcePoint" />
            <mxPoint x="730" y="180" as="targetPoint" />
          </mxGeometry>
        </mxCell>
        <mxCell id="q2-yrbOwbaP1IOzWYqq9-39" value="" style="endArrow=none;html=1;rounded=0;entryX=0;entryY=0;entryDx=0;entryDy=0;exitX=1;exitY=1;exitDx=0;exitDy=0;" edge="1" parent="1" source="q2-yrbOwbaP1IOzWYqq9-4" target="q2-yrbOwbaP1IOzWYqq9-36">
          <mxGeometry width="50" height="50" relative="1" as="geometry">
            <mxPoint x="780" y="330" as="sourcePoint" />
            <mxPoint x="830" y="280" as="targetPoint" />
          </mxGeometry>
        </mxCell>
        <mxCell id="q2-yrbOwbaP1IOzWYqq9-40" value="&lt;u&gt;LoanID&lt;/u&gt;" style="ellipse;whiteSpace=wrap;html=1;" vertex="1" parent="1">
          <mxGeometry x="410" y="100" width="80" height="40" as="geometry" />
        </mxCell>
        <mxCell id="q2-yrbOwbaP1IOzWYqq9-41" value="" style="endArrow=none;html=1;rounded=0;entryX=0.5;entryY=1;entryDx=0;entryDy=0;exitX=0.5;exitY=0;exitDx=0;exitDy=0;" edge="1" parent="1" source="q2-yrbOwbaP1IOzWYqq9-7" target="q2-yrbOwbaP1IOzWYqq9-40">
          <mxGeometry width="50" height="50" relative="1" as="geometry">
            <mxPoint x="330" y="330" as="sourcePoint" />
            <mxPoint x="380" y="280" as="targetPoint" />
          </mxGeometry>
        </mxCell>
        <mxCell id="q2-yrbOwbaP1IOzWYqq9-42" value="LoanDate" style="ellipse;whiteSpace=wrap;html=1;" vertex="1" parent="1">
          <mxGeometry x="490" y="180" width="80" height="40" as="geometry" />
        </mxCell>
        <mxCell id="q2-yrbOwbaP1IOzWYqq9-43" value="" style="endArrow=none;html=1;rounded=0;entryX=0;entryY=1;entryDx=0;entryDy=0;exitX=1;exitY=0;exitDx=0;exitDy=0;" edge="1" parent="1" source="q2-yrbOwbaP1IOzWYqq9-7" target="q2-yrbOwbaP1IOzWYqq9-42">
          <mxGeometry width="50" height="50" relative="1" as="geometry">
            <mxPoint x="580" y="340" as="sourcePoint" />
            <mxPoint x="630" y="290" as="targetPoint" />
          </mxGeometry>
        </mxCell>
        <mxCell id="q2-yrbOwbaP1IOzWYqq9-44" value="DueDate" style="ellipse;whiteSpace=wrap;html=1;" vertex="1" parent="1">
          <mxGeometry x="340" y="180" width="70" height="40" as="geometry" />
        </mxCell>
        <mxCell id="q2-yrbOwbaP1IOzWYqq9-45" value="" style="endArrow=none;html=1;rounded=0;entryX=1;entryY=1;entryDx=0;entryDy=0;exitX=0;exitY=0;exitDx=0;exitDy=0;" edge="1" parent="1" source="q2-yrbOwbaP1IOzWYqq9-7" target="q2-yrbOwbaP1IOzWYqq9-44">
          <mxGeometry width="50" height="50" relative="1" as="geometry">
            <mxPoint x="290" y="310" as="sourcePoint" />
            <mxPoint x="340" y="260" as="targetPoint" />
          </mxGeometry>
        </mxCell>
        <mxCell id="q2-yrbOwbaP1IOzWYqq9-46" value="ReturnDate" style="ellipse;whiteSpace=wrap;html=1;" vertex="1" parent="1">
          <mxGeometry x="345" y="130" width="80" height="40" as="geometry" />
        </mxCell>
        <mxCell id="q2-yrbOwbaP1IOzWYqq9-47" value="Status" style="ellipse;whiteSpace=wrap;html=1;" vertex="1" parent="1">
          <mxGeometry x="470" y="130" width="70" height="40" as="geometry" />
        </mxCell>
        <mxCell id="q2-yrbOwbaP1IOzWYqq9-48" value="" style="endArrow=none;html=1;rounded=0;entryX=0;entryY=1;entryDx=0;entryDy=0;exitX=0.75;exitY=0;exitDx=0;exitDy=0;" edge="1" parent="1" source="q2-yrbOwbaP1IOzWYqq9-7" target="q2-yrbOwbaP1IOzWYqq9-47">
          <mxGeometry width="50" height="50" relative="1" as="geometry">
            <mxPoint x="300" y="340" as="sourcePoint" />
            <mxPoint x="350" y="290" as="targetPoint" />
          </mxGeometry>
        </mxCell>
        <mxCell id="q2-yrbOwbaP1IOzWYqq9-49" value="" style="endArrow=none;html=1;rounded=0;entryX=1;entryY=1;entryDx=0;entryDy=0;exitX=0.25;exitY=0;exitDx=0;exitDy=0;" edge="1" parent="1" source="q2-yrbOwbaP1IOzWYqq9-7" target="q2-yrbOwbaP1IOzWYqq9-46">
          <mxGeometry width="50" height="50" relative="1" as="geometry">
            <mxPoint x="280" y="330" as="sourcePoint" />
            <mxPoint x="330" y="280" as="targetPoint" />
          </mxGeometry>
        </mxCell>
        <mxCell id="q2-yrbOwbaP1IOzWYqq9-50" value="&lt;u&gt;PaymentID&lt;/u&gt;" style="ellipse;whiteSpace=wrap;html=1;" vertex="1" parent="1">
          <mxGeometry x="10" y="30" width="70" height="45" as="geometry" />
        </mxCell>
        <mxCell id="q2-yrbOwbaP1IOzWYqq9-51" value="" style="endArrow=none;html=1;rounded=0;entryX=1;entryY=1;entryDx=0;entryDy=0;exitX=0;exitY=0;exitDx=0;exitDy=0;" edge="1" parent="1" source="q2-yrbOwbaP1IOzWYqq9-1" target="q2-yrbOwbaP1IOzWYqq9-50">
          <mxGeometry width="50" height="50" relative="1" as="geometry">
            <mxPoint x="270" y="280" as="sourcePoint" />
            <mxPoint x="320" y="230" as="targetPoint" />
          </mxGeometry>
        </mxCell>
        <mxCell id="q2-yrbOwbaP1IOzWYqq9-52" value="PaymentDate" style="ellipse;whiteSpace=wrap;html=1;" vertex="1" parent="1">
          <mxGeometry x="150" y="25" width="95" height="50" as="geometry" />
        </mxCell>
        <mxCell id="q2-yrbOwbaP1IOzWYqq9-53" value="Amount" style="ellipse;whiteSpace=wrap;html=1;" vertex="1" parent="1">
          <mxGeometry x="-10" y="100" width="80" height="50" as="geometry" />
        </mxCell>
        <mxCell id="q2-yrbOwbaP1IOzWYqq9-54" value="Method" style="ellipse;whiteSpace=wrap;html=1;" vertex="1" parent="1">
          <mxGeometry x="75" y="-10" width="80" height="50" as="geometry" />
        </mxCell>
        <mxCell id="q2-yrbOwbaP1IOzWYqq9-55" value="Has" style="rhombus;whiteSpace=wrap;html=1;" vertex="1" parent="1">
          <mxGeometry x="250" y="325" width="50" height="50" as="geometry" />
        </mxCell>
        <mxCell id="q2-yrbOwbaP1IOzWYqq9-56" value="" style="endArrow=none;html=1;rounded=0;entryX=0;entryY=0;entryDx=0;entryDy=0;exitX=1;exitY=1;exitDx=0;exitDy=0;" edge="1" parent="1" source="q2-yrbOwbaP1IOzWYqq9-55" target="q2-yrbOwbaP1IOzWYqq9-5">
          <mxGeometry width="50" height="50" relative="1" as="geometry">
            <mxPoint x="330" y="360" as="sourcePoint" />
            <mxPoint x="380" y="310" as="targetPoint" />
          </mxGeometry>
        </mxCell>
        <mxCell id="q2-yrbOwbaP1IOzWYqq9-58" value="M" style="edgeLabel;html=1;align=center;verticalAlign=middle;resizable=0;points=[];" vertex="1" connectable="0" parent="q2-yrbOwbaP1IOzWYqq9-56">
          <mxGeometry x="0.0307" relative="1" as="geometry">
            <mxPoint as="offset" />
          </mxGeometry>
        </mxCell>
        <mxCell id="q2-yrbOwbaP1IOzWYqq9-57" value="" style="endArrow=none;html=1;rounded=0;entryX=0;entryY=0.5;entryDx=0;entryDy=0;exitX=1;exitY=0.5;exitDx=0;exitDy=0;" edge="1" parent="1" source="q2-yrbOwbaP1IOzWYqq9-2" target="q2-yrbOwbaP1IOzWYqq9-55">
          <mxGeometry width="50" height="50" relative="1" as="geometry">
            <mxPoint x="210" y="390" as="sourcePoint" />
            <mxPoint x="260" y="340" as="targetPoint" />
          </mxGeometry>
        </mxCell>
        <mxCell id="q2-yrbOwbaP1IOzWYqq9-59" value="1" style="edgeLabel;html=1;align=center;verticalAlign=middle;resizable=0;points=[];" vertex="1" connectable="0" parent="q2-yrbOwbaP1IOzWYqq9-57">
          <mxGeometry x="0.0695" y="-2" relative="1" as="geometry">
            <mxPoint as="offset" />
          </mxGeometry>
        </mxCell>
        <mxCell id="q2-yrbOwbaP1IOzWYqq9-60" value="&lt;u&gt;StaffID&lt;/u&gt;" style="ellipse;whiteSpace=wrap;html=1;" vertex="1" parent="1">
          <mxGeometry x="45" y="600" width="70" height="40" as="geometry" />
        </mxCell>
        <mxCell id="q2-yrbOwbaP1IOzWYqq9-61" value="FullName" style="ellipse;whiteSpace=wrap;html=1;" vertex="1" parent="1">
          <mxGeometry x="120" y="640" width="80" height="40" as="geometry" />
        </mxCell>
        <mxCell id="q2-yrbOwbaP1IOzWYqq9-62" value="Position" style="ellipse;whiteSpace=wrap;html=1;" vertex="1" parent="1">
          <mxGeometry x="40" y="535" width="80" height="40" as="geometry" />
        </mxCell>
        <mxCell id="q2-yrbOwbaP1IOzWYqq9-63" value="ContactNumber" style="ellipse;whiteSpace=wrap;html=1;" vertex="1" parent="1">
          <mxGeometry x="225" y="630" width="100" height="50" as="geometry" />
        </mxCell>
        <mxCell id="q2-yrbOwbaP1IOzWYqq9-64" value="" style="endArrow=none;html=1;rounded=0;entryX=0;entryY=0.5;entryDx=0;entryDy=0;exitX=1;exitY=0.5;exitDx=0;exitDy=0;" edge="1" parent="1" source="q2-yrbOwbaP1IOzWYqq9-62" target="q2-yrbOwbaP1IOzWYqq9-3">
          <mxGeometry width="50" height="50" relative="1" as="geometry">
            <mxPoint x="-80" y="520" as="sourcePoint" />
            <mxPoint x="-30" y="470" as="targetPoint" />
          </mxGeometry>
        </mxCell>
        <mxCell id="q2-yrbOwbaP1IOzWYqq9-65" value="" style="endArrow=none;html=1;rounded=0;exitX=1;exitY=0;exitDx=0;exitDy=0;entryX=0;entryY=1;entryDx=0;entryDy=0;" edge="1" parent="1" source="q2-yrbOwbaP1IOzWYqq9-60" target="q2-yrbOwbaP1IOzWYqq9-3">
          <mxGeometry width="50" height="50" relative="1" as="geometry">
            <mxPoint x="120" y="640" as="sourcePoint" />
            <mxPoint x="170" y="590" as="targetPoint" />
          </mxGeometry>
        </mxCell>
        <mxCell id="q2-yrbOwbaP1IOzWYqq9-66" value="" style="endArrow=none;html=1;rounded=0;entryX=0.25;entryY=1;entryDx=0;entryDy=0;exitX=0.5;exitY=0;exitDx=0;exitDy=0;" edge="1" parent="1" source="q2-yrbOwbaP1IOzWYqq9-61" target="q2-yrbOwbaP1IOzWYqq9-3">
          <mxGeometry width="50" height="50" relative="1" as="geometry">
            <mxPoint x="100" y="650" as="sourcePoint" />
            <mxPoint x="150" y="600" as="targetPoint" />
          </mxGeometry>
        </mxCell>
        <mxCell id="q2-yrbOwbaP1IOzWYqq9-67" value="" style="endArrow=none;html=1;rounded=0;exitX=0.75;exitY=1;exitDx=0;exitDy=0;entryX=0.3;entryY=0.12;entryDx=0;entryDy=0;entryPerimeter=0;" edge="1" parent="1" source="q2-yrbOwbaP1IOzWYqq9-3" target="q2-yrbOwbaP1IOzWYqq9-63">
          <mxGeometry width="50" height="50" relative="1" as="geometry">
            <mxPoint x="280" y="630" as="sourcePoint" />
            <mxPoint x="330" y="580" as="targetPoint" />
          </mxGeometry>
        </mxCell>
        <mxCell id="q2-yrbOwbaP1IOzWYqq9-69" value="&lt;u&gt;ReviewID&lt;/u&gt;" style="ellipse;whiteSpace=wrap;html=1;" vertex="1" parent="1">
          <mxGeometry x="865" y="415" width="80" height="50" as="geometry" />
        </mxCell>
        <mxCell id="q2-yrbOwbaP1IOzWYqq9-70" value="Rating" style="ellipse;whiteSpace=wrap;html=1;" vertex="1" parent="1">
          <mxGeometry x="840" y="470" width="80" height="40" as="geometry" />
        </mxCell>
        <mxCell id="q2-yrbOwbaP1IOzWYqq9-71" value="Comments" style="ellipse;whiteSpace=wrap;html=1;" vertex="1" parent="1">
          <mxGeometry x="810" y="370" width="90" height="40" as="geometry" />
        </mxCell>
        <mxCell id="q2-yrbOwbaP1IOzWYqq9-72" value="ReviewDate" style="ellipse;whiteSpace=wrap;html=1;" vertex="1" parent="1">
          <mxGeometry x="740" y="490" width="80" height="50" as="geometry" />
        </mxCell>
        <mxCell id="q2-yrbOwbaP1IOzWYqq9-73" value="" style="endArrow=none;html=1;rounded=0;entryX=0.5;entryY=1;entryDx=0;entryDy=0;exitX=0.5;exitY=0;exitDx=0;exitDy=0;" edge="1" parent="1" source="q2-yrbOwbaP1IOzWYqq9-72" target="q2-yrbOwbaP1IOzWYqq9-6">
          <mxGeometry width="50" height="50" relative="1" as="geometry">
            <mxPoint x="700" y="710" as="sourcePoint" />
            <mxPoint x="750" y="660" as="targetPoint" />
          </mxGeometry>
        </mxCell>
        <mxCell id="q2-yrbOwbaP1IOzWYqq9-74" value="" style="endArrow=none;html=1;rounded=0;entryX=1;entryY=1;entryDx=0;entryDy=0;exitX=0;exitY=0;exitDx=0;exitDy=0;" edge="1" parent="1" source="q2-yrbOwbaP1IOzWYqq9-70" target="q2-yrbOwbaP1IOzWYqq9-6">
          <mxGeometry width="50" height="50" relative="1" as="geometry">
            <mxPoint x="900" y="660" as="sourcePoint" />
            <mxPoint x="950" y="610" as="targetPoint" />
          </mxGeometry>
        </mxCell>
        <mxCell id="q2-yrbOwbaP1IOzWYqq9-75" value="" style="endArrow=none;html=1;rounded=0;entryX=0;entryY=0.5;entryDx=0;entryDy=0;exitX=1;exitY=0.5;exitDx=0;exitDy=0;" edge="1" parent="1" source="q2-yrbOwbaP1IOzWYqq9-6" target="q2-yrbOwbaP1IOzWYqq9-69">
          <mxGeometry width="50" height="50" relative="1" as="geometry">
            <mxPoint x="820" y="660" as="sourcePoint" />
            <mxPoint x="870" y="610" as="targetPoint" />
          </mxGeometry>
        </mxCell>
        <mxCell id="q2-yrbOwbaP1IOzWYqq9-76" value="" style="endArrow=none;html=1;rounded=0;entryX=0;entryY=1;entryDx=0;entryDy=0;exitX=1;exitY=0;exitDx=0;exitDy=0;" edge="1" parent="1" source="q2-yrbOwbaP1IOzWYqq9-6" target="q2-yrbOwbaP1IOzWYqq9-71">
          <mxGeometry width="50" height="50" relative="1" as="geometry">
            <mxPoint x="640" y="700" as="sourcePoint" />
            <mxPoint x="690" y="650" as="targetPoint" />
          </mxGeometry>
        </mxCell>
        <mxCell id="q2-yrbOwbaP1IOzWYqq9-77" value="Has/For" style="rhombus;whiteSpace=wrap;html=1;" vertex="1" parent="1">
          <mxGeometry x="600" y="215" width="60" height="60" as="geometry" />
        </mxCell>
        <mxCell id="q2-yrbOwbaP1IOzWYqq9-78" value="" style="endArrow=none;html=1;rounded=0;entryX=0;entryY=0.5;entryDx=0;entryDy=0;exitX=1;exitY=0.5;exitDx=0;exitDy=0;" edge="1" parent="1" source="q2-yrbOwbaP1IOzWYqq9-7" target="q2-yrbOwbaP1IOzWYqq9-77">
          <mxGeometry width="50" height="50" relative="1" as="geometry">
            <mxPoint x="540" y="320" as="sourcePoint" />
            <mxPoint x="590" y="270" as="targetPoint" />
          </mxGeometry>
        </mxCell>
        <mxCell id="q2-yrbOwbaP1IOzWYqq9-81" value="M" style="edgeLabel;html=1;align=center;verticalAlign=middle;resizable=0;points=[];" vertex="1" connectable="0" parent="q2-yrbOwbaP1IOzWYqq9-78">
          <mxGeometry x="-0.0714" y="-1" relative="1" as="geometry">
            <mxPoint as="offset" />
          </mxGeometry>
        </mxCell>
        <mxCell id="q2-yrbOwbaP1IOzWYqq9-79" value="" style="endArrow=none;html=1;rounded=0;entryX=0;entryY=1;entryDx=0;entryDy=0;exitX=1;exitY=0;exitDx=0;exitDy=0;" edge="1" parent="1" source="q2-yrbOwbaP1IOzWYqq9-77" target="q2-yrbOwbaP1IOzWYqq9-4">
          <mxGeometry width="50" height="50" relative="1" as="geometry">
            <mxPoint x="740" y="380" as="sourcePoint" />
            <mxPoint x="790" y="330" as="targetPoint" />
          </mxGeometry>
        </mxCell>
        <mxCell id="q2-yrbOwbaP1IOzWYqq9-80" value="1" style="edgeLabel;html=1;align=center;verticalAlign=middle;resizable=0;points=[];" vertex="1" connectable="0" parent="q2-yrbOwbaP1IOzWYqq9-79">
          <mxGeometry x="0.0087" relative="1" as="geometry">
            <mxPoint as="offset" />
          </mxGeometry>
        </mxCell>
        <mxCell id="q2-yrbOwbaP1IOzWYqq9-83" value="Can Be" style="rhombus;whiteSpace=wrap;html=1;" vertex="1" parent="1">
          <mxGeometry x="420" y="310" width="60" height="60" as="geometry" />
        </mxCell>
        <mxCell id="q2-yrbOwbaP1IOzWYqq9-84" value="" style="endArrow=none;html=1;rounded=0;entryX=0.5;entryY=1;entryDx=0;entryDy=0;exitX=0.5;exitY=0;exitDx=0;exitDy=0;" edge="1" parent="1" source="q2-yrbOwbaP1IOzWYqq9-83" target="q2-yrbOwbaP1IOzWYqq9-7">
          <mxGeometry width="50" height="50" relative="1" as="geometry">
            <mxPoint x="530" y="430" as="sourcePoint" />
            <mxPoint x="580" y="380" as="targetPoint" />
          </mxGeometry>
        </mxCell>
        <mxCell id="q2-yrbOwbaP1IOzWYqq9-87" value="M" style="edgeLabel;html=1;align=center;verticalAlign=middle;resizable=0;points=[];" vertex="1" connectable="0" parent="q2-yrbOwbaP1IOzWYqq9-84">
          <mxGeometry x="0.16" relative="1" as="geometry">
            <mxPoint as="offset" />
          </mxGeometry>
        </mxCell>
        <mxCell id="q2-yrbOwbaP1IOzWYqq9-85" value="" style="endArrow=none;html=1;rounded=0;entryX=0.5;entryY=1;entryDx=0;entryDy=0;exitX=0.5;exitY=0;exitDx=0;exitDy=0;" edge="1" parent="1" source="q2-yrbOwbaP1IOzWYqq9-5" target="q2-yrbOwbaP1IOzWYqq9-83">
          <mxGeometry width="50" height="50" relative="1" as="geometry">
            <mxPoint x="550" y="420" as="sourcePoint" />
            <mxPoint x="600" y="370" as="targetPoint" />
          </mxGeometry>
        </mxCell>
        <mxCell id="q2-yrbOwbaP1IOzWYqq9-86" value="1" style="edgeLabel;html=1;align=center;verticalAlign=middle;resizable=0;points=[];" vertex="1" connectable="0" parent="q2-yrbOwbaP1IOzWYqq9-85">
          <mxGeometry x="0.0182" y="-2" relative="1" as="geometry">
            <mxPoint as="offset" />
          </mxGeometry>
        </mxCell>
        <mxCell id="q2-yrbOwbaP1IOzWYqq9-88" value="Linked" style="rhombus;whiteSpace=wrap;html=1;" vertex="1" parent="1">
          <mxGeometry x="270" y="220" width="50" height="50" as="geometry" />
        </mxCell>
        <mxCell id="q2-yrbOwbaP1IOzWYqq9-89" value="" style="endArrow=none;html=1;rounded=0;entryX=0.5;entryY=1;entryDx=0;entryDy=0;exitX=0.25;exitY=0;exitDx=0;exitDy=0;" edge="1" parent="1" source="q2-yrbOwbaP1IOzWYqq9-1" target="q2-yrbOwbaP1IOzWYqq9-54">
          <mxGeometry width="50" height="50" relative="1" as="geometry">
            <mxPoint x="100" y="220" as="sourcePoint" />
            <mxPoint x="150" y="170" as="targetPoint" />
          </mxGeometry>
        </mxCell>
        <mxCell id="q2-yrbOwbaP1IOzWYqq9-90" value="" style="endArrow=none;html=1;rounded=0;entryX=1;entryY=0.5;entryDx=0;entryDy=0;exitX=0;exitY=0.5;exitDx=0;exitDy=0;" edge="1" parent="1" source="q2-yrbOwbaP1IOzWYqq9-1" target="q2-yrbOwbaP1IOzWYqq9-53">
          <mxGeometry width="50" height="50" relative="1" as="geometry">
            <mxPoint x="50" y="260" as="sourcePoint" />
            <mxPoint x="100" y="210" as="targetPoint" />
          </mxGeometry>
        </mxCell>
        <mxCell id="q2-yrbOwbaP1IOzWYqq9-91" value="" style="endArrow=none;html=1;rounded=0;entryX=0;entryY=1;entryDx=0;entryDy=0;exitX=0.5;exitY=0;exitDx=0;exitDy=0;" edge="1" parent="1" source="q2-yrbOwbaP1IOzWYqq9-1" target="q2-yrbOwbaP1IOzWYqq9-52">
          <mxGeometry width="50" height="50" relative="1" as="geometry">
            <mxPoint x="140" y="230" as="sourcePoint" />
            <mxPoint x="190" y="180" as="targetPoint" />
          </mxGeometry>
        </mxCell>
        <mxCell id="q2-yrbOwbaP1IOzWYqq9-92" value="" style="endArrow=none;html=1;rounded=0;entryX=1;entryY=1;entryDx=0;entryDy=0;exitX=0;exitY=0;exitDx=0;exitDy=0;" edge="1" parent="1" source="q2-yrbOwbaP1IOzWYqq9-88" target="q2-yrbOwbaP1IOzWYqq9-1">
          <mxGeometry width="50" height="50" relative="1" as="geometry">
            <mxPoint x="130" y="290" as="sourcePoint" />
            <mxPoint x="180" y="240" as="targetPoint" />
          </mxGeometry>
        </mxCell>
        <mxCell id="q2-yrbOwbaP1IOzWYqq9-94" value="M" style="edgeLabel;html=1;align=center;verticalAlign=middle;resizable=0;points=[];" vertex="1" connectable="0" parent="q2-yrbOwbaP1IOzWYqq9-92">
          <mxGeometry x="0.0044" y="1" relative="1" as="geometry">
            <mxPoint as="offset" />
          </mxGeometry>
        </mxCell>
        <mxCell id="q2-yrbOwbaP1IOzWYqq9-93" value="" style="endArrow=none;html=1;rounded=0;entryX=0;entryY=0.5;entryDx=0;entryDy=0;exitX=1;exitY=0.5;exitDx=0;exitDy=0;" edge="1" parent="1" source="q2-yrbOwbaP1IOzWYqq9-88" target="q2-yrbOwbaP1IOzWYqq9-7">
          <mxGeometry width="50" height="50" relative="1" as="geometry">
            <mxPoint x="310" y="340" as="sourcePoint" />
            <mxPoint x="360" y="290" as="targetPoint" />
          </mxGeometry>
        </mxCell>
        <mxCell id="q2-yrbOwbaP1IOzWYqq9-95" value="1" style="edgeLabel;html=1;align=center;verticalAlign=middle;resizable=0;points=[];" vertex="1" connectable="0" parent="q2-yrbOwbaP1IOzWYqq9-93">
          <mxGeometry x="-0.0222" relative="1" as="geometry">
            <mxPoint as="offset" />
          </mxGeometry>
        </mxCell>
        <mxCell id="q2-yrbOwbaP1IOzWYqq9-96" value="Work" style="rhombus;whiteSpace=wrap;html=1;" vertex="1" parent="1">
          <mxGeometry x="167.5" y="430" width="55" height="55" as="geometry" />
        </mxCell>
        <mxCell id="q2-yrbOwbaP1IOzWYqq9-98" value="" style="endArrow=none;html=1;rounded=0;exitX=0.5;exitY=0;exitDx=0;exitDy=0;entryX=1;entryY=1;entryDx=0;entryDy=0;" edge="1" parent="1" source="q2-yrbOwbaP1IOzWYqq9-96" target="q2-yrbOwbaP1IOzWYqq9-2">
          <mxGeometry width="50" height="50" relative="1" as="geometry">
            <mxPoint x="210" y="450" as="sourcePoint" />
            <mxPoint x="260" y="400" as="targetPoint" />
          </mxGeometry>
        </mxCell>
        <mxCell id="q2-yrbOwbaP1IOzWYqq9-100" value="1" style="edgeLabel;html=1;align=center;verticalAlign=middle;resizable=0;points=[];" vertex="1" connectable="0" parent="q2-yrbOwbaP1IOzWYqq9-98">
          <mxGeometry x="0.1088" relative="1" as="geometry">
            <mxPoint as="offset" />
          </mxGeometry>
        </mxCell>
        <mxCell id="q2-yrbOwbaP1IOzWYqq9-99" value="" style="shape=link;html=1;rounded=0;exitX=0.5;exitY=1;exitDx=0;exitDy=0;entryX=0.5;entryY=0;entryDx=0;entryDy=0;" edge="1" parent="1" source="q2-yrbOwbaP1IOzWYqq9-96" target="q2-yrbOwbaP1IOzWYqq9-3">
          <mxGeometry width="100" relative="1" as="geometry">
            <mxPoint x="360" y="370" as="sourcePoint" />
            <mxPoint x="460" y="370" as="targetPoint" />
          </mxGeometry>
        </mxCell>
        <mxCell id="q2-yrbOwbaP1IOzWYqq9-101" value="M" style="edgeLabel;html=1;align=center;verticalAlign=middle;resizable=0;points=[];" vertex="1" connectable="0" parent="q2-yrbOwbaP1IOzWYqq9-99">
          <mxGeometry x="-0.0182" y="2" relative="1" as="geometry">
            <mxPoint x="-2" y="-2" as="offset" />
          </mxGeometry>
        </mxCell>
        <mxCell id="q2-yrbOwbaP1IOzWYqq9-102" value="Write" style="rhombus;whiteSpace=wrap;html=1;" vertex="1" parent="1">
          <mxGeometry x="735" y="280" width="50" height="50" as="geometry" />
        </mxCell>
        <mxCell id="q2-yrbOwbaP1IOzWYqq9-103" value="" style="endArrow=none;html=1;rounded=0;entryX=0.5;entryY=1;entryDx=0;entryDy=0;exitX=0.5;exitY=0;exitDx=0;exitDy=0;" edge="1" parent="1" source="q2-yrbOwbaP1IOzWYqq9-6" target="q2-yrbOwbaP1IOzWYqq9-102">
          <mxGeometry width="50" height="50" relative="1" as="geometry">
            <mxPoint x="670" y="420" as="sourcePoint" />
            <mxPoint x="720" y="370" as="targetPoint" />
          </mxGeometry>
        </mxCell>
        <mxCell id="q2-yrbOwbaP1IOzWYqq9-106" value="M" style="edgeLabel;html=1;align=center;verticalAlign=middle;resizable=0;points=[];" vertex="1" connectable="0" parent="q2-yrbOwbaP1IOzWYqq9-103">
          <mxGeometry x="0.1111" y="-1" relative="1" as="geometry">
            <mxPoint as="offset" />
          </mxGeometry>
        </mxCell>
        <mxCell id="q2-yrbOwbaP1IOzWYqq9-104" value="" style="shape=link;html=1;rounded=0;entryX=0.5;entryY=1;entryDx=0;entryDy=0;exitX=0.5;exitY=0;exitDx=0;exitDy=0;" edge="1" parent="1" source="q2-yrbOwbaP1IOzWYqq9-102" target="q2-yrbOwbaP1IOzWYqq9-4">
          <mxGeometry width="100" relative="1" as="geometry">
            <mxPoint x="600" y="380" as="sourcePoint" />
            <mxPoint x="700" y="380" as="targetPoint" />
          </mxGeometry>
        </mxCell>
        <mxCell id="q2-yrbOwbaP1IOzWYqq9-105" value="1" style="edgeLabel;html=1;align=center;verticalAlign=middle;resizable=0;points=[];" vertex="1" connectable="0" parent="q2-yrbOwbaP1IOzWYqq9-104">
          <mxGeometry x="0.075" y="3" relative="1" as="geometry">
            <mxPoint x="3" y="3" as="offset" />
          </mxGeometry>
        </mxCell>
        <mxCell id="q2-yrbOwbaP1IOzWYqq9-107" value="Receive&lt;br&gt;/For" style="rhombus;whiteSpace=wrap;html=1;" vertex="1" parent="1">
          <mxGeometry x="570" y="400" width="80" height="80" as="geometry" />
        </mxCell>
        <mxCell id="q2-yrbOwbaP1IOzWYqq9-108" value="" style="endArrow=none;html=1;rounded=0;exitX=1;exitY=0.5;exitDx=0;exitDy=0;entryX=0;entryY=0.5;entryDx=0;entryDy=0;" edge="1" parent="1" source="q2-yrbOwbaP1IOzWYqq9-5" target="q2-yrbOwbaP1IOzWYqq9-107">
          <mxGeometry width="50" height="50" relative="1" as="geometry">
            <mxPoint x="490" y="420" as="sourcePoint" />
            <mxPoint x="540" y="370" as="targetPoint" />
          </mxGeometry>
        </mxCell>
        <mxCell id="q2-yrbOwbaP1IOzWYqq9-111" value="1" style="edgeLabel;html=1;align=center;verticalAlign=middle;resizable=0;points=[];" vertex="1" connectable="0" parent="q2-yrbOwbaP1IOzWYqq9-108">
          <mxGeometry x="0.1" relative="1" as="geometry">
            <mxPoint as="offset" />
          </mxGeometry>
        </mxCell>
        <mxCell id="q2-yrbOwbaP1IOzWYqq9-109" value="" style="endArrow=none;html=1;rounded=0;entryX=0;entryY=0.5;entryDx=0;entryDy=0;exitX=1;exitY=0.5;exitDx=0;exitDy=0;" edge="1" parent="1" source="q2-yrbOwbaP1IOzWYqq9-107" target="q2-yrbOwbaP1IOzWYqq9-6">
          <mxGeometry width="50" height="50" relative="1" as="geometry">
            <mxPoint x="620" y="630" as="sourcePoint" />
            <mxPoint x="670" y="580" as="targetPoint" />
          </mxGeometry>
        </mxCell>
        <mxCell id="q2-yrbOwbaP1IOzWYqq9-110" value="M" style="edgeLabel;html=1;align=center;verticalAlign=middle;resizable=0;points=[];" vertex="1" connectable="0" parent="q2-yrbOwbaP1IOzWYqq9-109">
          <mxGeometry x="-0.0857" y="1" relative="1" as="geometry">
            <mxPoint as="offset" />
          </mxGeometry>
        </mxCell>
      </root>
    </mxGraphModel>
  </diagram>
</mxfile>
